<?xml version="1.0" encoding="UTF-8" standalone="no"?>
<!-- Created with Inkscape (http://www.inkscape.org/) -->

<svg
   xmlns:dc="http://purl.org/dc/elements/1.1/"
   xmlns:cc="http://creativecommons.org/ns#"
   xmlns:rdf="http://www.w3.org/1999/02/22-rdf-syntax-ns#"
   xmlns:svg="http://www.w3.org/2000/svg"
   xmlns="http://www.w3.org/2000/svg"
   xmlns:sodipodi="http://sodipodi.sourceforge.net/DTD/sodipodi-0.dtd"
   xmlns:inkscape="http://www.inkscape.org/namespaces/inkscape"
   width="16"
   height="16"
   viewBox="0 0 4.2333332 4.2333335"
   version="1.1"
   id="svg8"
   inkscape:version="0.92.1 r15371"
   sodipodi:docname="chip.svg">
  <defs
     id="defs2" />
  <sodipodi:namedview
     id="base"
     pagecolor="#ffffff"
     bordercolor="#666666"
     borderopacity="1.0"
     inkscape:pageopacity="0.0"
     inkscape:pageshadow="2"
     inkscape:zoom="5.6"
     inkscape:cx="50.052371"
     inkscape:cy="25.392195"
     inkscape:document-units="mm"
     inkscape:current-layer="layer1"
     showgrid="true"
     units="px"
     inkscape:snap-bbox="true"
     inkscape:bbox-paths="true"
     inkscape:bbox-nodes="true"
     inkscape:snap-bbox-edge-midpoints="false"
     inkscape:snap-bbox-midpoints="false">
    <inkscape:grid
       type="xygrid"
       id="grid4485" />
  </sodipodi:namedview>
  <metadata
     id="metadata5">
    <rdf:RDF>
      <cc:Work
         rdf:about="">
        <dc:format>image/svg+xml</dc:format>
        <dc:type
           rdf:resource="http://purl.org/dc/dcmitype/StillImage" />
        <dc:title />
      </cc:Work>
    </rdf:RDF>
  </metadata>
  <g
     inkscape:label="layer1"
     inkscape:groupmode="layer"
     id="layer1">
    <rect
       style="fill:#6c5d53;fill-opacity:1;stroke:none;stroke-width:3.83738661;stroke-linecap:round;stroke-linejoin:round;stroke-miterlimit:4;stroke-dasharray:none;stroke-opacity:1"
       id="rect4767"
       width="12.7"
       height="2.1166666"
       x="8.7312508"
       y="-6.614583" />
    <rect
       style="fill:#9a7a63;fill-opacity:1;stroke:none;stroke-width:4;stroke-linecap:round;stroke-linejoin:round;stroke-miterlimit:4;stroke-dasharray:none;stroke-opacity:1"
       id="rect4483"
       width="4.2333331"
       height="4.2333331"
       x="0"
       y="0" />
    <rect
       y="0"
       x="0"
       height="0.26458332"
       width="4.2333331"
       id="rect4485"
       style="fill:#6c5d53;fill-opacity:1;stroke:none;stroke-width:1;stroke-linecap:round;stroke-linejoin:round;stroke-miterlimit:4;stroke-dasharray:none;stroke-opacity:1" />
    <rect
       style="fill:#6c5d53;fill-opacity:1;stroke:none;stroke-width:1;stroke-linecap:round;stroke-linejoin:round;stroke-miterlimit:4;stroke-dasharray:none;stroke-opacity:1"
       id="rect4487"
       width="4.2333331"
       height="0.26458332"
       x="0"
       y="2.1166666" />
    <rect
       style="fill:#6c5d53;fill-opacity:1;stroke:none;stroke-width:0.66143793;stroke-linecap:round;stroke-linejoin:round;stroke-miterlimit:4;stroke-dasharray:none;stroke-opacity:1"
       id="rect4489"
       width="0.26458335"
       height="1.8520833"
       x="0.52916664"
       y="0.26458332" />
    <rect
       y="2.3812499"
       x="2.3812499"
       height="1.8520833"
       width="0.26458335"
       id="rect4491"
       style="fill:#6c5d53;fill-opacity:1;stroke:none;stroke-width:0.66143793;stroke-linecap:round;stroke-linejoin:round;stroke-miterlimit:4;stroke-dasharray:none;stroke-opacity:1" />
    <rect
       y="0.79374999"
       x="0.79374999"
       height="1.3229166"
       width="0.26458335"
       id="rect4573"
       style="fill:#8e6850;fill-opacity:1;stroke:none;stroke-width:0.55901706;stroke-linecap:round;stroke-linejoin:round;stroke-miterlimit:4;stroke-dasharray:none;stroke-opacity:1" />
    <rect
       style="fill:#8e6850;fill-opacity:1;stroke:none;stroke-width:0.86602539;stroke-linecap:round;stroke-linejoin:round;stroke-miterlimit:4;stroke-dasharray:none;stroke-opacity:1"
       id="rect4575"
       width="3.175"
       height="0.26458329"
       x="0.79374999"
       y="1.8520833" />
    <rect
       style="fill:#8e6850;fill-opacity:1;stroke:none;stroke-width:0.55901706;stroke-linecap:round;stroke-linejoin:round;stroke-miterlimit:4;stroke-dasharray:none;stroke-opacity:1"
       id="rect4577"
       width="0.26458335"
       height="1.3229166"
       x="2.6458333"
       y="2.9104166" />
    <rect
       y="3.96875"
       x="2.6458333"
       height="0.26458332"
       width="1.5875001"
       id="rect4579"
       style="fill:#8e6850;fill-opacity:1;stroke:none;stroke-width:0.61237252;stroke-linecap:round;stroke-linejoin:round;stroke-miterlimit:4;stroke-dasharray:none;stroke-opacity:1" />
    <rect
       style="fill:#8e6850;fill-opacity:1;stroke:none;stroke-width:0.6123724;stroke-linecap:round;stroke-linejoin:round;stroke-miterlimit:4;stroke-dasharray:none;stroke-opacity:1"
       id="rect4581"
       width="1.5874999"
       height="0.26458329"
       x="0"
       y="3.96875" />
    <rect
       y="0.26458332"
       x="1.8520833"
       height="0.26458329"
       width="2.3812499"
       id="rect4583"
       style="fill:#8e6850;fill-opacity:1;stroke:none;stroke-width:0.75;stroke-linecap:round;stroke-linejoin:round;stroke-miterlimit:4;stroke-dasharray:none;stroke-opacity:1" />
    <rect
       style="fill:#8e6850;fill-opacity:1;stroke:none;stroke-width:0.35355341;stroke-linecap:round;stroke-linejoin:round;stroke-miterlimit:4;stroke-dasharray:none;stroke-opacity:1"
       id="rect4585"
       width="0.52916664"
       height="0.26458329"
       x="0"
       y="0.26458332" />
    <rect
       style="fill:#8e6850;fill-opacity:1;stroke:none;stroke-width:0.75;stroke-linecap:round;stroke-linejoin:round;stroke-miterlimit:4;stroke-dasharray:none;stroke-opacity:1"
       id="rect4587"
       width="2.3812499"
       height="0.26458329"
       x="1.3229166"
       y="1.0583333" />
    <rect
       y="1.3229166"
       x="1.8520833"
       height="0.26458329"
       width="2.3812499"
       id="rect4589"
       style="fill:#8e6850;fill-opacity:1;stroke:none;stroke-width:0.75;stroke-linecap:round;stroke-linejoin:round;stroke-miterlimit:4;stroke-dasharray:none;stroke-opacity:1" />
    <rect
       style="fill:#8e6850;fill-opacity:1;stroke:none;stroke-width:0.75;stroke-linecap:round;stroke-linejoin:round;stroke-miterlimit:4;stroke-dasharray:none;stroke-opacity:1"
       id="rect4591"
       width="2.3812499"
       height="0.26458329"
       x="0"
       y="2.3812499" />
    <rect
       y="2.3812499"
       x="3.7041664"
       height="0.26458329"
       width="0.52916664"
       id="rect4593"
       style="fill:#8e6850;fill-opacity:1;stroke:none;stroke-width:0.35355341;stroke-linecap:round;stroke-linejoin:round;stroke-miterlimit:4;stroke-dasharray:none;stroke-opacity:1" />
    <rect
       y="3.175"
       x="3.175"
       height="0.26458329"
       width="1.0583334"
       id="rect4595"
       style="fill:#8e6850;fill-opacity:1;stroke:none;stroke-width:0.50000006;stroke-linecap:round;stroke-linejoin:round;stroke-miterlimit:4;stroke-dasharray:none;stroke-opacity:1" />
    <rect
       style="fill:#8e6850;fill-opacity:1;stroke:none;stroke-width:0.35355344;stroke-linecap:round;stroke-linejoin:round;stroke-miterlimit:4;stroke-dasharray:none;stroke-opacity:1"
       id="rect4597"
       width="0.5291667"
       height="0.26458338"
       x="3.7041667"
       y="3.4395833" />
    <rect
       style="fill:#8e6850;fill-opacity:1;stroke:none;stroke-width:0.55901706;stroke-linecap:round;stroke-linejoin:round;stroke-miterlimit:4;stroke-dasharray:none;stroke-opacity:1"
       id="rect4599"
       width="1.3229165"
       height="0.26458338"
       x="0"
       y="3.175" />
    <rect
       y="3.4395833"
       x="0"
       height="0.26458338"
       width="1.8520832"
       id="rect4601"
       style="fill:#8e6850;fill-opacity:1;stroke:none;stroke-width:0.66143793;stroke-linecap:round;stroke-linejoin:round;stroke-miterlimit:4;stroke-dasharray:none;stroke-opacity:1" />
    <rect
       y="0.79374999"
       x="2.3812499"
       height="0.26458335"
       width="1.8520834"
       id="rect4923"
       style="fill:#8e6850;fill-opacity:1;stroke:none;stroke-width:0.66143793;stroke-linecap:round;stroke-linejoin:round;stroke-miterlimit:4;stroke-dasharray:none;stroke-opacity:1" />
    <rect
       style="fill:#8e6850;fill-opacity:1;stroke:none;stroke-width:0.25000009;stroke-linecap:round;stroke-linejoin:round;stroke-miterlimit:4;stroke-dasharray:none;stroke-opacity:1"
       id="rect4925"
       width="0.26458347"
       height="0.26458335"
       x="2.7755576e-017"
       y="0.79374999" />
    <rect
       style="fill:#8e6850;fill-opacity:1;stroke:none;stroke-width:0.35355347;stroke-linecap:round;stroke-linejoin:round;stroke-miterlimit:4;stroke-dasharray:none;stroke-opacity:1"
       id="rect4927"
       width="0.5291667"
       height="0.26458341"
       x="3.7041667"
       y="2.9104166" />
    <rect
       y="2.9104166"
       x="0"
       height="0.26458341"
       width="2.1166666"
       id="rect4929"
       style="fill:#8e6850;fill-opacity:1;stroke:none;stroke-width:0.70710695;stroke-linecap:round;stroke-linejoin:round;stroke-miterlimit:4;stroke-dasharray:none;stroke-opacity:1" />
    <rect
       y="-8.7312498"
       x="2.4227904e-007"
       height="4.2333331"
       width="4.2333331"
       id="rect5171"
       style="fill:#9a7a63;fill-opacity:1;stroke:none;stroke-width:4;stroke-linecap:round;stroke-linejoin:round;stroke-miterlimit:4;stroke-dasharray:none;stroke-opacity:1" />
    <rect
       style="fill:#9a7a63;fill-opacity:1;stroke:none;stroke-width:4;stroke-linecap:round;stroke-linejoin:round;stroke-miterlimit:4;stroke-dasharray:none;stroke-opacity:1"
       id="rect5173"
       width="4.2333331"
       height="4.2333331"
       x="4.2333336"
       y="-8.7312498" />
    <path
       style="fill:#6c5d53;fill-opacity:1;stroke:none;stroke-width:1.27475548;stroke-linecap:round;stroke-linejoin:round;stroke-miterlimit:4;stroke-dasharray:none;stroke-opacity:1"
       d="M 1.5e-7,-7.6729167 V -6.6145834 H 0.26458345 V -6.3500001 H 0.52916675 V -6.0854168 H 0.79375015 V -5.8208334 H 1.0583334 V -5.5562501 H 1.3229167 V -5.2916668 H 1.5875 V -5.0270834 H 2.1166667 V -4.7625001 H 2.9104167 V -4.4979168 H 5.5562497 V -4.7625001 H 6.3499997 V -5.0270834 H 6.8791667 V -5.2916668 H 7.1437497 V -5.5562501 H 7.4083327 V -5.8208334 H 7.6729167 V -6.0854168 H 7.9374997 V -6.3500001 H 8.2020827 V -6.6145834 H 8.4666668 V -7.6729167 Z"
       id="rect5341"
       inkscape:connector-curvature="0" />
    <rect
       style="fill:#9a7a63;fill-opacity:1;stroke:none;stroke-width:4;stroke-linecap:round;stroke-linejoin:round;stroke-miterlimit:4;stroke-dasharray:none;stroke-opacity:1"
       id="rect5175"
       width="4.2333331"
       height="4.2333331"
       x="2.4227904e-007"
       y="-12.964583" />
    <rect
       y="-12.964583"
       x="4.2333336"
       height="4.2333331"
       width="4.2333331"
       id="rect5177"
       style="fill:#9a7a63;fill-opacity:1;stroke:none;stroke-width:4;stroke-linecap:round;stroke-linejoin:round;stroke-miterlimit:4;stroke-dasharray:none;stroke-opacity:1" />
    <path
       style="fill:#866849;fill-opacity:1;stroke:none;stroke-width:2.07019639;stroke-linecap:round;stroke-linejoin:round;stroke-miterlimit:4;stroke-dasharray:none;stroke-opacity:1"
       d="M 0.26458333,-8.2020834 V -7.6729167 H 0.52916666 V -7.4083334 H 0.79374999 V -7.1437501 H 1.0583333 V -6.8791667 H 1.3229166 V -6.6145834 H 1.0583333 V -5.0270834 H 1.5875 V -6.3500001 H 2.1166666 V -6.0854168 H 2.9104166 V -5.8208334 H 5.5562499 V -6.0854168 H 6.3499999 V -6.3500001 H 6.8791666 V -5.0270834 H 7.4083332 V -6.6145834 H 7.1437499 V -6.8791667 H 7.4083332 V -7.1437501 H 7.6729166 V -7.4083334 H 7.9374999 V -7.6729167 H 8.2020832 V -8.2020834 Z"
       id="rect5315"
       inkscape:connector-curvature="0" />
    <path
       style="fill:#997a45;fill-opacity:1;stroke:none;stroke-width:4.85504103;stroke-linecap:round;stroke-linejoin:round;stroke-miterlimit:4;stroke-dasharray:none;stroke-opacity:1"
       d="M 2.9104166,-12.964583 V -12.7 H 2.1166666 V -12.435417 H 1.5875 V -12.170833 H 1.3229166 V -11.90625 H 1.0583333 V -11.641667 H 0.79374999 V -11.377083 H 0.52916666 V -11.1125 H 0.26458333 V -8.2020834 H 0.52916666 V -7.9375001 H 0.79374999 V -7.6729167 H 1.0583333 V -7.4083334 H 1.3229166 V -7.1437501 H 1.5875 V -6.8791667 H 2.1166666 V -6.6145834 H 2.9104166 V -6.3500001 H 5.5562499 V -6.6145834 H 6.3499999 V -6.8791667 H 6.8791666 V -7.1437501 H 7.1437499 V -7.4083334 H 7.4083332 V -7.6729167 H 7.6729166 V -7.9375001 H 7.9374999 V -8.2020834 H 8.2020832 V -11.1125 H 7.9374999 V -11.377083 H 7.6729166 V -11.641667 H 7.4083332 V -11.90625 H 7.1437499 V -12.170833 H 6.8791666 V -12.435417 H 6.3499999 V -12.7 H 5.5562499 V -12.964583 Z"
       id="rect5183"
       inkscape:connector-curvature="0" />
    <path
       style="fill:#6c5d53;fill-opacity:1;stroke:none;stroke-width:0.79056907;stroke-linecap:round;stroke-linejoin:round;stroke-miterlimit:4;stroke-dasharray:none;stroke-opacity:1"
       d="M 2.9104166,-12.964583 V -12.7 H 5.5562499 V -12.964583 Z M 5.5562499,-12.7 V -12.435417 H 6.3499999 V -12.7 Z M 6.3499999,-12.435417 V -12.170833 H 6.8791666 V -12.435417 Z M 6.8791666,-12.170833 V -11.90625 H 7.1437499 V -12.170833 Z M 7.1437499,-11.90625 V -11.641667 H 7.4083332 V -11.90625 Z M 7.4083332,-11.641667 V -11.377083 H 7.6729166 V -11.641667 Z M 7.6729166,-11.377083 V -11.1125 H 7.9374999 V -11.377083 Z M 7.9374999,-11.1125 V -10.583333 H 8.2020832 V -11.1125 Z M 8.2020832,-10.583333 V -8.7312501 H 7.9374999 V -8.2020834 H 8.2020832 V -7.6729167 H 8.4666666 V -10.583333 Z M 8.2020832,-7.6729167 H 7.9374999 V -7.4083334 H 8.2020832 Z M 7.9374999,-7.4083334 H 7.6729166 V -7.1437501 H 7.9374999 Z M 7.6729166,-7.1437501 H 7.4083332 V -6.8791667 H 7.1437499 V -6.6145834 H 7.4083332 V -5.0270834 H 7.6729166 Z M 7.4083332,-5.0270834 H 6.8791666 V -4.7625001 H 7.4083332 Z M 6.8791666,-5.0270834 V -6.0854168 V -6.3500001 H 6.3499999 V -6.0854168 H 6.6145832 V -5.0270834 Z M 6.3499999,-6.0854168 H 5.5562499 V -5.8208334 H 6.3499999 Z M 5.5562499,-5.8208334 H 2.9104166 V -5.5562501 H 5.5562499 Z M 2.9104166,-5.8208334 V -6.0854168 H 2.1166666 V -5.8208334 Z M 2.1166666,-6.0854168 V -6.3500001 H 1.5875 V -6.0854168 V -5.0270834 H 1.8520833 V -6.0854168 Z M 1.5875,-5.0270834 H 1.0583333 V -4.7625001 H 1.5875 Z M 1.0583333,-5.0270834 V -6.6145834 H 1.3229166 V -6.8791667 H 1.0583333 V -7.1437501 H 0.79374999 V -5.0270834 Z M 0.79374999,-7.1437501 V -7.4083334 H 0.52916666 V -7.1437501 Z M 0.52916666,-7.4083334 V -7.6729167 H 0.26458333 V -7.4083334 Z M 0.26458333,-7.6729167 V -8.2020834 H 0.52916666 V -8.7312501 H 0.26458333 V -10.583333 H 0 V -7.6729167 Z M 0.26458333,-10.583333 H 0.52916666 V -11.1125 H 0.26458333 Z M 0.52916666,-11.1125 H 0.79374999 V -11.377083 H 0.52916666 Z M 0.79374999,-11.377083 H 1.0583333 V -11.641667 H 0.79374999 Z M 1.0583333,-11.641667 H 1.3229166 V -11.90625 H 1.0583333 Z M 1.3229166,-11.90625 H 1.5875 V -12.170833 H 1.3229166 Z M 1.5875,-12.170833 H 2.1166666 V -12.435417 H 1.5875 Z M 2.1166666,-12.435417 H 2.9104166 V -12.7 H 2.1166666 Z M 0.52916666,-8.2020834 V -7.9375001 H 0.79374999 V -8.2020834 Z M 0.79374999,-7.9375001 V -7.6729167 H 1.0583333 V -7.9375001 Z M 1.0583333,-7.6729167 V -7.4083334 H 1.3229166 V -7.6729167 Z M 1.3229166,-7.4083334 V -7.1437501 H 1.5875 V -7.4083334 Z M 1.5875,-7.1437501 V -6.8791667 H 2.1166666 V -7.1437501 Z M 2.1166666,-6.8791667 V -6.6145834 H 2.9104166 V -6.8791667 Z M 2.9104166,-6.6145834 V -6.3500001 H 5.5562499 V -6.6145834 Z M 5.5562499,-6.6145834 H 6.3499999 V -6.8791667 H 5.5562499 Z M 6.3499999,-6.8791667 H 6.8791666 V -7.1437501 H 6.3499999 Z M 6.8791666,-7.1437501 H 7.1437499 V -7.4083334 H 6.8791666 Z M 7.1437499,-7.4083334 H 7.4083332 V -7.6729167 H 7.1437499 Z M 7.4083332,-7.6729167 H 7.6729166 V -7.9375001 H 7.4083332 Z M 7.6729166,-7.9375001 H 7.9374999 V -8.2020834 H 7.6729166 Z M 1.3229166,-6.6145834 V -6.3500001 H 1.5875 V -6.6145834 Z M 6.8791666,-6.3500001 H 7.1437499 V -6.6145834 H 6.8791666 Z"
       id="rect5199"
       inkscape:connector-curvature="0" />
    <path
       style="fill:#ae882f;fill-opacity:1;stroke:none;stroke-width:4;stroke-linecap:round;stroke-linejoin:round;stroke-miterlimit:4;stroke-dasharray:none;stroke-opacity:1"
       d="M 4.7624999,-12.7 V -12.435417 H 5.5562499 V -12.7 Z M 2.9104166,-12.170833 V -11.90625 H 5.5562499 V -12.170833 Z M 5.5562499,-11.90625 V -11.641667 H 6.0854166 V -11.90625 Z M 6.0854166,-11.641667 V -11.1125 H 6.6145832 V -11.641667 Z M 6.6145832,-11.1125 V -10.847917 H 7.1437499 V -11.1125 Z M 7.1437499,-10.847917 V -10.054167 H 7.4083332 V -10.847917 Z M 7.4083332,-10.054167 V -9.525 H 7.6729166 V -10.054167 Z M 7.6729166,-9.525 V -8.9958334 H 7.9374999 V -9.525 Z M 7.9374999,-9.525 H 8.2020832 V -10.054167 H 7.9374999 Z M 7.6729166,-8.9958334 H 7.4083332 V -8.4666667 H 7.6729166 Z M 7.4083332,-8.4666667 H 7.1437499 V -8.2020834 H 7.4083332 Z M 7.1437499,-8.2020834 H 6.8791666 V -7.9375001 H 7.1437499 Z M 6.8791666,-7.9375001 H 6.6145832 V -7.4083334 H 6.8791666 Z M 6.6145832,-7.4083334 H 5.5562499 V -7.1437501 H 6.6145832 Z M 5.5562499,-7.1437501 H 2.9104166 V -6.8791667 H 5.5562499 Z M 2.9104166,-7.1437501 V -7.4083334 H 2.1166666 V -7.1437501 Z M 7.4083332,-9.525 H 7.1437499 V -9.2604167 H 7.4083332 Z M 7.1437499,-9.2604167 H 6.8791666 V -8.9958334 H 7.1437499 Z M 6.8791666,-8.9958334 H 6.3499999 V -8.7312501 H 6.8791666 Z M 6.3499999,-8.7312501 H 6.0854166 V -8.2020834 H 6.3499999 Z M 6.0854166,-8.2020834 H 5.2916666 V -7.9375001 H 6.0854166 Z M 5.2916666,-7.9375001 H 3.4395833 V -8.2020834 H 1.8520833 V -7.6729167 H 3.4395833 V -7.4083334 H 5.2916666 Z M 1.8520833,-8.2020834 V -8.4666667 H 1.5875 V -8.2020834 Z M 1.5875,-8.4666667 V -8.7312501 H 1.3229166 V -8.4666667 Z M 1.3229166,-8.7312501 V -9.2604167 H 1.0583333 V -8.7312501 Z M 1.0583333,-9.2604167 V -10.054167 H 0.79374999 V -9.2604167 Z M 1.0583333,-10.054167 H 1.3229166 V -10.847917 H 1.0583333 Z M 1.3229166,-10.847917 H 1.5875 V -11.1125 H 1.3229166 Z M 1.5875,-11.1125 H 1.8520833 V -11.377083 H 2.9104166 V -11.90625 H 1.8520833 V -11.641667 H 1.5875 Z M 6.0854166,-8.7312501 V -8.9958334 H 5.8208333 V -8.7312501 Z M 5.8208333,-8.7312501 H 3.4395833 V -8.4666667 H 5.8208333 Z M 3.4395833,-8.7312501 V -8.9958334 H 2.38125 V -8.7312501 Z M 2.38125,-8.9958334 V -9.2604167 H 2.1166666 V -8.9958334 Z M 2.1166666,-9.2604167 V -9.525 H 1.8520833 V -9.2604167 Z M 1.8520833,-9.525 V -10.583333 H 1.5875 V -9.525 Z M 1.8520833,-10.583333 H 2.1166666 V -10.847917 H 1.8520833 Z M 2.1166666,-10.847917 H 3.4395833 V -11.1125 H 5.0270833 V -11.377083 H 3.175 V -11.1125 H 2.1166666 Z M 5.0270833,-11.1125 V -10.847917 H 6.0854166 V -11.1125 Z M 6.0854166,-10.847917 V -10.583333 H 6.3499999 V -10.847917 Z M 6.3499999,-10.583333 V -10.31875 H 6.6145832 V -10.583333 Z M 6.6145832,-10.31875 V -9.7895834 H 6.8791666 V -10.31875 Z M 6.6145832,-9.7895834 H 6.3499999 V -10.054167 H 6.0854166 V -9.525 H 6.3499999 V -9.2604167 H 6.6145832 Z M 6.3499999,-9.2604167 H 6.0854166 V -8.9958334 H 6.3499999 Z M 6.0854166,-9.2604167 V -9.525 H 5.8208333 V -9.2604167 Z M 5.8208333,-9.2604167 H 3.9687499 V -8.9958334 H 5.8208333 Z M 3.9687499,-9.2604167 V -9.525 H 2.9104166 V -9.2604167 Z M 2.9104166,-9.525 V -9.7895834 H 2.6458333 V -9.525 Z M 2.6458333,-9.7895834 V -10.054167 H 2.38125 V -9.7895834 Z M 2.38125,-10.054167 V -10.31875 H 2.1166666 V -10.054167 Z M 2.38125,-10.31875 H 3.9687499 V -10.583333 H 2.38125 Z M 3.9687499,-10.583333 H 5.0270833 V -10.847917 H 3.9687499 Z M 5.0270833,-10.583333 V -10.31875 H 5.8208333 V -10.583333 Z M 5.8208333,-10.31875 V -10.054167 H 6.0854166 V -10.31875 Z M 7.1437499,-11.641667 V -11.377083 H 7.4083332 V -11.641667 Z M 7.6729166,-11.1125 V -10.847917 H 7.9374999 V -11.1125 Z M 0.26458333,-10.583333 V -9.525 H 0.52916666 V -10.583333 Z M 3.4395833,-10.054167 V -9.7895834 H 5.2916666 V -10.054167 Z M 0.52916666,-8.4666667 V -8.2020834 H 0.79374999 V -8.4666667 Z"
       id="rect4602"
       inkscape:connector-curvature="0" />
    <rect
       style="fill:#6c5d53;fill-opacity:1;stroke:none;stroke-width:6.28571463;stroke-linecap:round;stroke-linejoin:round;stroke-miterlimit:4;stroke-dasharray:none;stroke-opacity:1"
       id="rect4757"
       width="8.7312508"
       height="2.9104166"
       x="8.7312508"
       y="-8.7312498" />
    <rect
       y="-12.964583"
       x="17.197916"
       height="7.1437502"
       width="4.2333331"
       id="rect4761"
       style="fill:#6c5d53;fill-opacity:1;stroke:none;stroke-width:6.8571434;stroke-linecap:round;stroke-linejoin:round;stroke-miterlimit:4;stroke-dasharray:none;stroke-opacity:1" />
    <rect
       y="-8.4666662"
       x="8.9958344"
       height="2.3812499"
       width="12.170834"
       id="rect4759"
       style="fill:#997a45;fill-opacity:1;stroke:none;stroke-width:6.71276617;stroke-linecap:round;stroke-linejoin:round;stroke-miterlimit:4;stroke-dasharray:none;stroke-opacity:1" />
    <rect
       style="fill:#997a45;fill-opacity:1;stroke:none;stroke-width:5.92010307;stroke-linecap:round;stroke-linejoin:round;stroke-miterlimit:4;stroke-dasharray:none;stroke-opacity:1"
       id="rect4763"
       width="3.7041667"
       height="6.0854168"
       x="17.4625"
       y="-12.7" />
    <rect
       y="-5.8208327"
       x="8.9958344"
       height="1.0583333"
       width="11.377083"
       id="rect4765"
       style="fill:#866849;fill-opacity:1;stroke:none;stroke-width:4.32678747;stroke-linecap:round;stroke-linejoin:round;stroke-miterlimit:4;stroke-dasharray:none;stroke-opacity:1" />
    <rect
       y="-6.3499994"
       x="20.902082"
       height="0.26458329"
       width="0.26458362"
       id="rect4783"
       style="fill:#ae882f;fill-opacity:1;stroke:none;stroke-width:1.00000143;stroke-linecap:round;stroke-linejoin:round;stroke-miterlimit:4;stroke-dasharray:none;stroke-opacity:1" />
    <rect
       style="fill:#ae882f;fill-opacity:1;stroke:none;stroke-width:1.41421378;stroke-linecap:round;stroke-linejoin:round;stroke-miterlimit:4;stroke-dasharray:none;stroke-opacity:1"
       id="rect4785"
       width="0.52916682"
       height="0.26458329"
       x="20.372917"
       y="-6.614583" />
    <rect
       y="-6.8791661"
       x="19.84375"
       height="0.26458329"
       width="0.52916682"
       id="rect4787"
       style="fill:#ae882f;fill-opacity:1;stroke:none;stroke-width:1.41421378;stroke-linecap:round;stroke-linejoin:round;stroke-miterlimit:4;stroke-dasharray:none;stroke-opacity:1" />
    <rect
       style="fill:#ae882f;fill-opacity:1;stroke:none;stroke-width:0.9999997;stroke-linecap:round;stroke-linejoin:round;stroke-miterlimit:4;stroke-dasharray:none;stroke-opacity:1"
       id="rect4789"
       width="0.26458323"
       height="0.26458323"
       x="19.579166"
       y="-7.1437497" />
    <rect
       y="-7.4083328"
       x="19.049999"
       height="0.26458323"
       width="0.52916628"
       id="rect4791"
       style="fill:#ae882f;fill-opacity:1;stroke:none;stroke-width:1.41421294;stroke-linecap:round;stroke-linejoin:round;stroke-miterlimit:4;stroke-dasharray:none;stroke-opacity:1" />
    <rect
       style="fill:#ae882f;fill-opacity:1;stroke:none;stroke-width:1.00000095;stroke-linecap:round;stroke-linejoin:round;stroke-miterlimit:4;stroke-dasharray:none;stroke-opacity:1"
       id="rect4793"
       width="0.26458383"
       height="0.26458326"
       x="18.785416"
       y="-7.6729164" />
    <rect
       y="-7.9374995"
       x="18.25625"
       height="0.26458326"
       width="0.52916807"
       id="rect4795"
       style="fill:#ae882f;fill-opacity:1;stroke:none;stroke-width:1.41421545;stroke-linecap:round;stroke-linejoin:round;stroke-miterlimit:4;stroke-dasharray:none;stroke-opacity:1" />
    <rect
       style="fill:#ae882f;fill-opacity:1;stroke:none;stroke-width:1.41421545;stroke-linecap:round;stroke-linejoin:round;stroke-miterlimit:4;stroke-dasharray:none;stroke-opacity:1"
       id="rect4797"
       width="0.52916807"
       height="0.26458326"
       x="17.727083"
       y="-8.2020826" />
    <rect
       y="-8.4666662"
       x="17.4625"
       height="0.26458329"
       width="0.26458436"
       id="rect4799"
       style="fill:#ae882f;fill-opacity:1;stroke:none;stroke-width:1.00000203;stroke-linecap:round;stroke-linejoin:round;stroke-miterlimit:4;stroke-dasharray:none;stroke-opacity:1" />
    <rect
       y="-8.2020826"
       x="8.9958344"
       height="0.26458329"
       width="3.1750007"
       id="rect4801"
       style="fill:#ae882f;fill-opacity:1;stroke:none;stroke-width:3.46410227;stroke-linecap:round;stroke-linejoin:round;stroke-miterlimit:4;stroke-dasharray:none;stroke-opacity:1" />
    <rect
       style="fill:#ae882f;fill-opacity:1;stroke:none;stroke-width:3.46410227;stroke-linecap:round;stroke-linejoin:round;stroke-miterlimit:4;stroke-dasharray:none;stroke-opacity:1"
       id="rect4803"
       width="3.1750007"
       height="0.26458329"
       x="9.7895851"
       y="-7.6729164" />
    <rect
       y="-7.1437497"
       x="8.9958344"
       height="0.26458323"
       width="2.6458328"
       id="rect4805"
       style="fill:#ae882f;fill-opacity:1;stroke:none;stroke-width:3.16227722;stroke-linecap:round;stroke-linejoin:round;stroke-miterlimit:4;stroke-dasharray:none;stroke-opacity:1" />
    <rect
       style="fill:#ae882f;fill-opacity:1;stroke:none;stroke-width:2.23606682;stroke-linecap:round;stroke-linejoin:round;stroke-miterlimit:4;stroke-dasharray:none;stroke-opacity:1"
       id="rect4807"
       width="1.3229154"
       height="0.26458323"
       x="8.9958363"
       y="-6.614583" />
    <rect
       y="-6.614583"
       x="11.112503"
       height="0.26458323"
       width="3.4395819"
       id="rect4809"
       style="fill:#ae882f;fill-opacity:1;stroke:none;stroke-width:3.60555029;stroke-linecap:round;stroke-linejoin:round;stroke-miterlimit:4;stroke-dasharray:none;stroke-opacity:1" />
    <rect
       style="fill:#ae882f;fill-opacity:1;stroke:none;stroke-width:2.23606753;stroke-linecap:round;stroke-linejoin:round;stroke-miterlimit:4;stroke-dasharray:none;stroke-opacity:1"
       id="rect4811"
       width="1.3229164"
       height="0.26458323"
       x="11.906252"
       y="-7.1437497" />
    <rect
       y="-8.2020826"
       x="12.435419"
       height="0.26458323"
       width="2.1166658"
       id="rect4813"
       style="fill:#ae882f;fill-opacity:1;stroke:none;stroke-width:2.82842636;stroke-linecap:round;stroke-linejoin:round;stroke-miterlimit:4;stroke-dasharray:none;stroke-opacity:1" />
    <rect
       style="fill:#ae882f;fill-opacity:1;stroke:none;stroke-width:4.12310553;stroke-linecap:round;stroke-linejoin:round;stroke-miterlimit:4;stroke-dasharray:none;stroke-opacity:1"
       id="rect4815"
       width="4.4979172"
       height="0.26458323"
       x="13.229168"
       y="-7.6729164" />
    <rect
       y="-8.2020826"
       x="15.345835"
       height="0.26458329"
       width="1.5875002"
       id="rect4817"
       style="fill:#ae882f;fill-opacity:1;stroke:none;stroke-width:2.44949007;stroke-linecap:round;stroke-linejoin:round;stroke-miterlimit:4;stroke-dasharray:none;stroke-opacity:1" />
    <rect
       style="fill:#ae882f;fill-opacity:1;stroke:none;stroke-width:3.3166244;stroke-linecap:round;stroke-linejoin:round;stroke-miterlimit:4;stroke-dasharray:none;stroke-opacity:1"
       id="rect4819"
       width="2.9104166"
       height="0.26458323"
       x="13.758335"
       y="-7.1437497" />
    <rect
       y="-6.614583"
       x="15.345835"
       height="0.2645832"
       width="4.2333336"
       id="rect4821"
       style="fill:#ae882f;fill-opacity:1;stroke:none;stroke-width:3.99999928;stroke-linecap:round;stroke-linejoin:round;stroke-miterlimit:4;stroke-dasharray:none;stroke-opacity:1" />
    <rect
       style="fill:#ae882f;fill-opacity:1;stroke:none;stroke-width:2.64575148;stroke-linecap:round;stroke-linejoin:round;stroke-miterlimit:4;stroke-dasharray:none;stroke-opacity:1"
       id="rect4823"
       width="1.8520839"
       height="0.26458323"
       x="16.933332"
       y="-7.1437497" />
    <rect
       style="fill:#ae882f;fill-opacity:1;stroke:none;stroke-width:2.23607349;stroke-linecap:round;stroke-linejoin:round;stroke-miterlimit:4;stroke-dasharray:none;stroke-opacity:1"
       id="rect4825"
       width="0.26458457"
       height="1.3229166"
       x="17.991667"
       y="8.7312498"
       transform="scale(1,-1)" />
    <rect
       transform="scale(1,-1)"
       y="8.2020826"
       x="18.785416"
       height="2.3812501"
       width="0.26458457"
       id="rect4827"
       style="fill:#ae882f;fill-opacity:1;stroke:none;stroke-width:3.00000739;stroke-linecap:round;stroke-linejoin:round;stroke-miterlimit:4;stroke-dasharray:none;stroke-opacity:1" />
    <rect
       style="fill:#ae882f;fill-opacity:1;stroke:none;stroke-width:1.73205519;stroke-linecap:round;stroke-linejoin:round;stroke-miterlimit:4;stroke-dasharray:none;stroke-opacity:1"
       id="rect4829"
       width="0.26458457"
       height="0.79375011"
       x="19.579165"
       y="7.6729164"
       transform="scale(1,-1)" />
    <rect
       transform="scale(1,-1)"
       y="7.1437497"
       x="20.372915"
       height="2.1166668"
       width="0.26458457"
       id="rect4831"
       style="fill:#ae882f;fill-opacity:1;stroke:none;stroke-width:2.82843423;stroke-linecap:round;stroke-linejoin:round;stroke-miterlimit:4;stroke-dasharray:none;stroke-opacity:1" />
    <rect
       style="fill:#ae882f;fill-opacity:1;stroke:none;stroke-width:2.82843423;stroke-linecap:round;stroke-linejoin:round;stroke-miterlimit:4;stroke-dasharray:none;stroke-opacity:1"
       id="rect4833"
       width="0.26458457"
       height="2.1166668"
       x="19.579166"
       y="8.9958334"
       transform="scale(1,-1)" />
    <rect
       transform="scale(1,-1)"
       y="10.583333"
       x="17.991667"
       height="2.1166668"
       width="0.26458457"
       id="rect4835"
       style="fill:#ae882f;fill-opacity:1;stroke:none;stroke-width:2.82843423;stroke-linecap:round;stroke-linejoin:round;stroke-miterlimit:4;stroke-dasharray:none;stroke-opacity:1" />
    <rect
       style="fill:#ae882f;fill-opacity:1;stroke:none;stroke-width:1.41421688;stroke-linecap:round;stroke-linejoin:round;stroke-miterlimit:4;stroke-dasharray:none;stroke-opacity:1"
       id="rect4837"
       width="0.26458457"
       height="0.52916658"
       x="18.785416"
       y="10.847917"
       transform="scale(1,-1)" />
    <rect
       transform="scale(1,-1)"
       y="11.90625"
       x="18.785416"
       height="0.79375011"
       width="0.26458457"
       id="rect4839"
       style="fill:#ae882f;fill-opacity:1;stroke:none;stroke-width:1.73205507;stroke-linecap:round;stroke-linejoin:round;stroke-miterlimit:4;stroke-dasharray:none;stroke-opacity:1" />
    <rect
       style="fill:#ae882f;fill-opacity:1;stroke:none;stroke-width:2.23607326;stroke-linecap:round;stroke-linejoin:round;stroke-miterlimit:4;stroke-dasharray:none;stroke-opacity:1"
       id="rect4841"
       width="0.26458457"
       height="1.3229167"
       x="19.579165"
       y="11.377083"
       transform="scale(1,-1)" />
    <rect
       style="fill:#ae882f;fill-opacity:1;stroke:none;stroke-width:2.82843423;stroke-linecap:round;stroke-linejoin:round;stroke-miterlimit:4;stroke-dasharray:none;stroke-opacity:1"
       id="rect4843"
       width="0.26458457"
       height="2.1166668"
       x="20.372917"
       y="9.5249996"
       transform="scale(1,-1)" />
    <rect
       transform="scale(1,-1)"
       y="11.90625"
       x="20.372917"
       height="0.79375023"
       width="0.26458457"
       id="rect4845"
       style="fill:#ae882f;fill-opacity:1;stroke:none;stroke-width:1.73205531;stroke-linecap:round;stroke-linejoin:round;stroke-miterlimit:4;stroke-dasharray:none;stroke-opacity:1" />
  </g>
</svg>
