<?xml version="1.0" encoding="UTF-8" standalone="no"?>
<svg
   xmlns:dc="http://purl.org/dc/elements/1.1/"
   xmlns:cc="http://creativecommons.org/ns#"
   xmlns:rdf="http://www.w3.org/1999/02/22-rdf-syntax-ns#"
   xmlns:svg="http://www.w3.org/2000/svg"
   xmlns="http://www.w3.org/2000/svg"
   id="svg8"
   version="1.1"
   viewBox="0 0 4.2333332 4.2333335"
   height="16"
   width="16">
  <defs
     id="defs2" />
  <metadata
     id="metadata5">
    <rdf:RDF>
      <cc:Work
         rdf:about="">
        <dc:format>image/svg+xml</dc:format>
        <dc:type
           rdf:resource="http://purl.org/dc/dcmitype/StillImage" />
        <dc:title></dc:title>
      </cc:Work>
    </rdf:RDF>
  </metadata>
  <g
     id="layer1">
    <rect
       y="0"
       x="0"
       height="4.2333331"
       width="4.2333331"
       id="rect4483"
       style="fill:#9a7a63;fill-opacity:1;stroke:none;stroke-width:4;stroke-linecap:round;stroke-linejoin:round;stroke-miterlimit:4;stroke-dasharray:none;stroke-opacity:1" />
    <path
       id="rect4485"
       d="M 0,0 C 0,0.08819444 0,0.17638889 0,0.26458333 C 0.17638889,0.26458333 0.35277776,0.26458333 0.52916666,0.26458333 C 0.52916666,0.88194442 0.52916666,1.4993055 0.52916666,2.1166666 C 0.35277776,2.1166666 0.17638889,2.1166666 0,2.1166666 C 0,2.2048611 0,2.2930555 0,2.38125 C 0.79374999,2.38125 1.5875,2.38125 2.38125,2.38125 C 2.38125,2.998611 2.38125,3.6159723 2.38125,4.2333333 C 2.4694444,4.2333333 2.5576389,4.2333333 2.6458333,4.2333333 C 2.6458333,3.6159723 2.6458333,2.998611 2.6458333,2.38125 C 3.175,2.38125 3.7041666,2.38125 4.2333333,2.38125 C 4.2333333,2.2930555 4.2333333,2.2048611 4.2333333,2.1166666 C 3.0868056,2.1166666 1.9402777,2.1166666 0.79374999,2.1166666 C 0.79374999,1.4993055 0.79374999,0.88194442 0.79374999,0.26458333 C 1.9402777,0.26458333 3.0868056,0.26458333 4.2333333,0.26458333 C 4.2333333,0.17638889 4.2333333,0.08819444 4.2333333,0 C 2.8222223,0 1.4111111,0 0,0 Z"
       style="fill:#6c5d53;fill-opacity:1;stroke:none;stroke-width:1;stroke-linecap:round;stroke-linejoin:round;stroke-miterlimit:4;stroke-dasharray:none;stroke-opacity:1" />
    <path
       id="rect4573"
       d="M 0,0.26458333 C 0,0.35277776 0,0.44097223 0,0.52916666 C 0.17638889,0.52916666 0.35277776,0.52916666 0.52916666,0.52916666 C 0.52916666,0.44097223 0.52916666,0.35277776 0.52916666,0.26458333 C 0.35277776,0.26458333 0.17638889,0.26458333 0,0.26458333 Z M 1.8520833,0.26458333 C 1.8520833,0.35277776 1.8520833,0.44097223 1.8520833,0.52916666 C 2.6458333,0.52916666 3.4395833,0.52916666 4.2333333,0.52916666 C 4.2333333,0.44097223 4.2333333,0.35277776 4.2333333,0.26458333 C 3.4395833,0.26458333 2.6458333,0.26458333 1.8520833,0.26458333 Z M 0,0.79374999 C 0,0.88194442 0,0.97013889 0,1.0583333 C 0.08819444,1.0583333 0.17638889,1.0583333 0.26458333,1.0583333 C 0.26458333,0.97013889 0.26458333,0.88194442 0.26458333,0.79374999 C 0.17638889,0.79374999 0.08819444,0.79374999 0,0.79374999 Z M 0.79374999,0.79374999 C 0.79374999,1.2347222 0.79374999,1.6756944 0.79374999,2.1166666 C 1.8520833,2.1166666 2.9104166,2.1166666 3.96875,2.1166666 C 3.96875,2.0284722 3.96875,1.9402777 3.96875,1.8520833 C 2.998611,1.8520833 2.0284722,1.8520833 1.0583333,1.8520833 C 1.0583333,1.4993055 1.0583333,1.1465278 1.0583333,0.79374999 C 0.97013889,0.79374999 0.88194442,0.79374999 0.79374999,0.79374999 Z M 2.38125,0.79374999 C 2.38125,0.88194442 2.38125,0.97013889 2.38125,1.0583333 C 2.0284722,1.0583333 1.6756944,1.0583333 1.3229166,1.0583333 C 1.3229166,1.1465278 1.3229166,1.2347222 1.3229166,1.3229166 C 1.4993055,1.3229166 1.6756944,1.3229166 1.8520833,1.3229166 C 1.8520833,1.4111111 1.8520833,1.4993055 1.8520833,1.5875 C 2.6458333,1.5875 3.4395833,1.5875 4.2333333,1.5875 C 4.2333333,1.4993055 4.2333333,1.4111111 4.2333333,1.3229166 C 4.0569443,1.3229166 3.8805556,1.3229166 3.7041666,1.3229166 C 3.7041666,1.2347222 3.7041666,1.1465278 3.7041666,1.0583333 C 3.8805556,1.0583333 4.0569443,1.0583333 4.2333333,1.0583333 C 4.2333333,0.97013889 4.2333333,0.88194442 4.2333333,0.79374999 C 3.6159723,0.79374999 2.998611,0.79374999 2.38125,0.79374999 Z M 0,2.38125 C 0,2.4694444 0,2.5576389 0,2.6458333 C 0.79374999,2.6458333 1.5875,2.6458333 2.38125,2.6458333 C 2.38125,2.5576389 2.38125,2.4694444 2.38125,2.38125 C 1.5875,2.38125 0.79374999,2.38125 0,2.38125 Z M 3.7041666,2.38125 C 3.7041666,2.4694444 3.7041666,2.5576389 3.7041666,2.6458333 C 3.8805556,2.6458333 4.0569443,2.6458333 4.2333333,2.6458333 C 4.2333333,2.5576389 4.2333333,2.4694444 4.2333333,2.38125 C 4.0569443,2.38125 3.8805556,2.38125 3.7041666,2.38125 Z M 0,2.9104166 C 0,3.175 0,3.4395833 0,3.7041666 C 0.61736109,3.7041666 1.2347222,3.7041666 1.8520833,3.7041666 C 1.8520833,3.6159723 1.8520833,3.5277776 1.8520833,3.4395833 C 1.6756944,3.4395833 1.4993055,3.4395833 1.3229166,3.4395833 C 1.3229166,3.3513889 1.3229166,3.2631943 1.3229166,3.175 C 1.5875,3.175 1.8520833,3.175 2.1166666,3.175 C 2.1166666,3.0868056 2.1166666,2.998611 2.1166666,2.9104166 C 1.4111111,2.9104166 0.70555556,2.9104166 0,2.9104166 Z M 2.6458333,2.9104166 C 2.6458333,3.3513889 2.6458333,3.792361 2.6458333,4.2333333 C 3.175,4.2333333 3.7041666,4.2333333 4.2333333,4.2333333 C 4.2333333,4.1451389 4.2333333,4.0569443 4.2333333,3.96875 C 3.792361,3.96875 3.3513889,3.96875 2.9104166,3.96875 C 2.9104166,3.6159723 2.9104166,3.2631943 2.9104166,2.9104166 C 2.8222223,2.9104166 2.7340277,2.9104166 2.6458333,2.9104166 Z M 3.7041666,2.9104166 C 3.7041666,2.998611 3.7041666,3.0868056 3.7041666,3.175 C 3.5277776,3.175 3.3513889,3.175 3.175,3.175 C 3.175,3.2631943 3.175,3.3513889 3.175,3.4395833 C 3.3513889,3.4395833 3.5277776,3.4395833 3.7041666,3.4395833 C 3.7041666,3.5277776 3.7041666,3.6159723 3.7041666,3.7041666 C 3.8805556,3.7041666 4.0569443,3.7041666 4.2333333,3.7041666 C 4.2333333,3.4395833 4.2333333,3.175 4.2333333,2.9104166 C 4.0569443,2.9104166 3.8805556,2.9104166 3.7041666,2.9104166 Z M 0,3.96875 C 0,4.0569443 0,4.1451389 0,4.2333333 C 0.52916666,4.2333333 1.0583333,4.2333333 1.5875,4.2333333 C 1.5875,4.1451389 1.5875,4.0569443 1.5875,3.96875 C 1.0583333,3.96875 0.52916666,3.96875 0,3.96875 Z"
       style="fill:#8e6850;fill-opacity:1;stroke:none;stroke-width:0.55901706;stroke-linecap:round;stroke-linejoin:round;stroke-miterlimit:4;stroke-dasharray:none;stroke-opacity:1" />
  </g>
</svg>
