<?xml version="1.0" encoding="UTF-8" standalone="no"?>
<svg
   xmlns:dc="http://purl.org/dc/elements/1.1/"
   xmlns:cc="http://creativecommons.org/ns#"
   xmlns:rdf="http://www.w3.org/1999/02/22-rdf-syntax-ns#"
   xmlns:svg="http://www.w3.org/2000/svg"
   xmlns="http://www.w3.org/2000/svg"
   id="svg8"
   version="1.1"
   viewBox="0 0 4.2333332 4.2333335"
   height="32"
   width="32">
  <defs
     id="defs2" />
  <metadata
     id="metadata5">
    <rdf:RDF>
      <cc:Work
         rdf:about="">
        <dc:format>image/svg+xml</dc:format>
        <dc:type
           rdf:resource="http://purl.org/dc/dcmitype/StillImage" />
        <dc:title></dc:title>
      </cc:Work>
    </rdf:RDF>
  </metadata>
  <g
     id="layer1">
    <rect
       style="fill:#6c5d53;fill-opacity:1;stroke:none;stroke-width:5.27863169;stroke-linecap:round;stroke-linejoin:round;stroke-miterlimit:4;stroke-dasharray:none;stroke-opacity:1"
       id="rect4565"
       width="4.2333341"
       height="4.2333336"
       x="-4.9130409e-007"
       y="3.860442e-010" />
    <path
       id="rect4759"
       d="M 2.2489584,0.13229167 C 2.2489584,0.83784724 2.2489584,1.5434029 2.2489584,2.2489584 C 1.4993055,2.2489584 0.7496528,2.2489584 0,2.2489584 C 0,2.6458334 0,3.0427084 0,3.4395834 C 1.3670139,3.4395834 2.7340279,3.4395834 4.1010418,3.4395834 C 4.1010418,2.3371529 4.1010418,1.2347222 4.1010418,0.13229167 C 3.4836806,0.13229167 2.8663196,0.13229167 2.2489584,0.13229167 Z"
       style="fill:#997a45;fill-opacity:1;stroke:none;stroke-width:2.75532889;stroke-linecap:round;stroke-linejoin:round;stroke-miterlimit:4;stroke-dasharray:none;stroke-opacity:1" />
    <rect
       style="fill:#866849;fill-opacity:1;stroke:none;stroke-width:1.77664387;stroke-linecap:round;stroke-linejoin:round;stroke-miterlimit:4;stroke-dasharray:none;stroke-opacity:1"
       id="rect4765"
       width="3.8364587"
       height="0.52916664"
       x="-2.220446e-016"
       y="3.5718751" />
    <rect
       y="0.13229156"
       x="0.13229132"
       height="1.190625"
       width="1.9843755"
       id="rect4567"
       style="fill:#997a45;fill-opacity:1;stroke:none;stroke-width:1.91663003;stroke-linecap:round;stroke-linejoin:round;stroke-miterlimit:4;stroke-dasharray:none;stroke-opacity:1" />
    <rect
       y="1.4552083"
       x="0.13229179"
       height="0.52916664"
       width="1.984375"
       id="rect4569"
       style="fill:#866849;fill-opacity:1;stroke:none;stroke-width:1.27775323;stroke-linecap:round;stroke-linejoin:round;stroke-miterlimit:4;stroke-dasharray:none;stroke-opacity:1" />
    <path
       transform="scale(0.13229167)"
       id="rect4783"
       d="M 19 1 L 19 9 L 20 9 L 20 1 L 19 1 z M 22 1 L 22 4 L 23 4 L 23 1 L 22 1 z M 25 1 L 25 6 L 26 6 L 26 1 L 25 1 z M 28 1 L 28 4 L 29 4 L 29 1 L 28 1 z M 1 2 L 1 3 L 13 3 L 13 2 L 1 2 z M 14 2 L 14 3 L 16 3 L 16 2 L 14 2 z M 4 4 L 4 5 L 16 5 L 16 4 L 4 4 z M 28 5 L 28 13 L 29 13 L 29 5 L 28 5 z M 1 6 L 1 7 L 11 7 L 11 6 L 1 6 z M 12 6 L 12 7 L 16 7 L 16 6 L 12 6 z M 22 6 L 22 8 L 23 8 L 23 6 L 22 6 z M 25 7 L 25 15 L 26 15 L 26 7 L 25 7 z M 1 8 L 1 9 L 6 9 L 6 8 L 1 8 z M 9 8 L 9 9 L 16 9 L 16 8 L 9 8 z M 22 9 L 22 18 L 23 18 L 23 9 L 22 9 z M 19 11 L 19 16 L 20 16 L 20 11 L 19 11 z M 28 14 L 28 22 L 29 22 L 29 14 L 28 14 z M 17 17 L 17 18 L 18 18 L 18 17 L 17 17 z M 18 18 L 18 19 L 20 19 L 20 18 L 18 18 z M 20 19 L 20 20 L 22 20 L 22 19 L 20 19 z M 22 20 L 22 21 L 23 21 L 23 20 L 22 20 z M 23 21 L 23 22 L 25 22 L 25 21 L 23 21 z M 25 22 L 25 23 L 26 23 L 26 22 L 25 22 z M 26 23 L 26 24 L 28 24 L 28 23 L 26 23 z M 28 24 L 28 25 L 30 25 L 30 24 L 28 24 z M 30 25 L 30 26 L 31 26 L 31 25 L 30 25 z M 25 17 L 25 20 L 26 20 L 26 17 L 25 17 z M 0 18 L 0 19 L 6 19 L 6 18 L 0 18 z M 9 18 L 9 19 L 15 19 L 15 18 L 9 18 z M 1 20 L 1 21 L 18 21 L 18 20 L 1 20 z M 0 22 L 0 23 L 1 23 L 1 22 L 0 22 z M 3 22 L 3 23 L 14 23 L 14 22 L 3 22 z M 15 22 L 15 23 L 22 23 L 22 22 L 15 22 z M 0 24 L 0 25 L 6 25 L 6 24 L 0 24 z M 9 24 L 9 25 L 25 25 L 25 24 L 9 24 z "
       style="fill:#ae882f;fill-opacity:1;stroke:none;stroke-width:3.77953291;stroke-linecap:round;stroke-linejoin:round;stroke-miterlimit:4;stroke-dasharray:none;stroke-opacity:1" />
  </g>
</svg>
