<?xml version="1.0" encoding="UTF-8" standalone="no"?>
<svg
   xmlns:dc="http://purl.org/dc/elements/1.1/"
   xmlns:cc="http://creativecommons.org/ns#"
   xmlns:rdf="http://www.w3.org/1999/02/22-rdf-syntax-ns#"
   xmlns:svg="http://www.w3.org/2000/svg"
   xmlns="http://www.w3.org/2000/svg"
   id="svg8"
   version="1.1"
   viewBox="0 0 4.2333332 4.2333335"
   height="32"
   width="32">
  <defs
     id="defs2" />
  <metadata
     id="metadata5">
    <rdf:RDF>
      <cc:Work
         rdf:about="">
        <dc:format>image/svg+xml</dc:format>
        <dc:type
           rdf:resource="http://purl.org/dc/dcmitype/StillImage" />
        <dc:title></dc:title>
      </cc:Work>
    </rdf:RDF>
  </metadata>
  <g
     id="layer1">
    <path
       id="rect5341"
       d="M -2.7683716e-8,2.6458332 V 3.1749999 H 0.13229167 V 3.3072916 H 0.26458325 V 3.4395832 H 0.39687505 V 3.5718749 H 0.52916665 V 3.7041666 H 0.66145835 V 3.8364582 H 0.79374995 V 3.9687499 H 1.0583334 V 4.1010416 H 1.4552083 V 4.2333332 H 2.7781249 V 4.1010416 H 3.1749999 V 3.9687499 H 3.4395835 V 3.8364582 H 3.5718749 V 3.7041666 H 3.7041664 V 3.5718749 H 3.8364585 V 3.4395832 H 3.9687499 V 3.3072916 H 4.1010414 V 3.1749999 H 4.2333335 V 2.6458332 Z"
       style="fill:#6c5d53;fill-opacity:1;stroke:none;stroke-width:0.63737774;stroke-linecap:round;stroke-linejoin:round;stroke-miterlimit:4;stroke-dasharray:none;stroke-opacity:1" />
    <path
       id="rect5315"
       d="M 0.13229157,2.3812499 V 2.6458332 H 0.26458325 V 2.7781249 H 0.39687495 V 2.9104166 H 0.52916655 V 3.0427082 H 0.66145825 V 3.1749999 H 0.52916655 V 3.9687499 H 0.79374995 V 3.3072916 H 1.0583333 V 3.4395832 H 1.4552083 V 3.5718749 H 2.778125 V 3.4395832 H 3.175 V 3.3072916 H 3.4395833 V 3.9687499 H 3.7041667 V 3.1749999 H 3.571875 V 3.0427082 H 3.7041667 V 2.9104166 H 3.8364583 V 2.7781249 H 3.96875 V 2.6458332 H 4.1010417 V 2.3812499 Z"
       style="fill:#866849;fill-opacity:1;stroke:none;stroke-width:1.0350982;stroke-linecap:round;stroke-linejoin:round;stroke-miterlimit:4;stroke-dasharray:none;stroke-opacity:1" />
    <path
       id="rect5183"
       d="M 1.4552083,-6.364418e-8 V 0.13229161 H 1.0583333 V 0.26458327 H 0.79374995 V 0.39687494 H 0.66145825 V 0.52916661 H 0.52916655 V 0.66145825 H 0.39687495 V 0.79374995 H 0.26458325 V 0.92604165 H 0.13229157 V 2.3812499 H 0.26458325 V 2.5135416 H 0.39687495 V 2.6458332 H 0.52916655 V 2.7781249 H 0.66145825 V 2.9104166 H 0.79374995 V 3.0427082 H 1.0583333 V 3.1749999 H 1.4552083 V 3.3072916 H 2.778125 V 3.1749999 H 3.175 V 3.0427082 H 3.4395833 V 2.9104166 H 3.571875 V 2.7781249 H 3.7041667 V 2.6458332 H 3.8364583 V 2.5135416 H 3.96875 V 2.3812499 H 4.1010417 V 0.92604165 H 3.96875 V 0.79374995 H 3.8364583 V 0.66145825 H 3.7041667 V 0.52916661 H 3.571875 V 0.39687494 H 3.4395833 V 0.26458327 H 3.175 V 0.13229161 H 2.778125 V -6.364418e-8 Z"
       style="fill:#997a45;fill-opacity:1;stroke:none;stroke-width:2.42752051;stroke-linecap:round;stroke-linejoin:round;stroke-miterlimit:4;stroke-dasharray:none;stroke-opacity:1" />
    <path
       id="rect5199"
       d="M 1.4552083,-6.364418e-8 V 0.13229161 H 2.778125 V -6.364418e-8 Z M 2.778125,0.13229161 V 0.26458327 H 3.175 V 0.13229161 Z M 3.175,0.26458327 V 0.39687494 H 3.4395833 V 0.26458327 Z M 3.4395833,0.39687494 V 0.52916661 H 3.571875 V 0.39687494 Z M 3.571875,0.52916661 V 0.66145825 H 3.7041667 V 0.52916661 Z M 3.7041667,0.66145825 V 0.79374995 H 3.8364583 V 0.66145825 Z M 3.8364583,0.79374995 V 0.92604165 H 3.96875 V 0.79374995 Z M 3.96875,0.92604165 V 1.1906249 H 4.1010417 V 0.92604165 Z M 4.1010417,1.1906249 V 2.1166666 H 3.96875 V 2.3812499 H 4.1010417 V 2.6458332 H 4.2333333 V 1.1906249 Z M 4.1010417,2.6458332 H 3.96875 V 2.7781249 H 4.1010417 Z M 3.96875,2.7781249 H 3.8364583 V 2.9104166 H 3.96875 Z M 3.8364583,2.9104166 H 3.7041667 V 3.0427082 H 3.571875 V 3.1749999 H 3.7041667 V 3.9687499 H 3.8364583 Z M 3.7041667,3.9687499 H 3.4395833 V 4.1010416 H 3.7041667 Z M 3.4395833,3.9687499 V 3.4395832 V 3.3072916 H 3.175 V 3.4395832 H 3.3072917 V 3.9687499 Z M 3.175,3.4395832 H 2.778125 V 3.5718749 H 3.175 Z M 2.778125,3.5718749 H 1.4552083 V 3.7041666 H 2.778125 Z M 1.4552083,3.5718749 V 3.4395832 H 1.0583333 V 3.5718749 Z M 1.0583333,3.4395832 V 3.3072916 H 0.79374995 V 3.4395832 V 3.9687499 H 0.92604155 V 3.4395832 Z M 0.79374995,3.9687499 H 0.52916655 V 4.1010416 H 0.79374995 Z M 0.52916655,3.9687499 V 3.1749999 H 0.66145825 V 3.0427082 H 0.52916655 V 2.9104166 H 0.39687495 V 3.9687499 Z M 0.39687495,2.9104166 V 2.7781249 H 0.26458325 V 2.9104166 Z M 0.26458325,2.7781249 V 2.6458332 H 0.13229157 V 2.7781249 Z M 0.13229157,2.6458332 V 2.3812499 H 0.26458325 V 2.1166666 H 0.13229157 V 1.1906249 H -2.7683716e-8 V 2.6458332 Z M 0.13229157,1.1906249 H 0.26458325 V 0.92604165 H 0.13229157 Z M 0.26458325,0.92604165 H 0.39687495 V 0.79374995 H 0.26458325 Z M 0.39687495,0.79374995 H 0.52916655 V 0.66145825 H 0.39687495 Z M 0.52916655,0.66145825 H 0.66145825 V 0.52916661 H 0.52916655 Z M 0.66145825,0.52916661 H 0.79374995 V 0.39687494 H 0.66145825 Z M 0.79374995,0.39687494 H 1.0583333 V 0.26458327 H 0.79374995 Z M 1.0583333,0.26458327 H 1.4552083 V 0.13229161 H 1.0583333 Z M 0.26458325,2.3812499 V 2.5135416 H 0.39687495 V 2.3812499 Z M 0.39687495,2.5135416 V 2.6458332 H 0.52916655 V 2.5135416 Z M 0.52916655,2.6458332 V 2.7781249 H 0.66145825 V 2.6458332 Z M 0.66145825,2.7781249 V 2.9104166 H 0.79374995 V 2.7781249 Z M 0.79374995,2.9104166 V 3.0427082 H 1.0583333 V 2.9104166 Z M 1.0583333,3.0427082 V 3.1749999 H 1.4552083 V 3.0427082 Z M 1.4552083,3.1749999 V 3.3072916 H 2.778125 V 3.1749999 Z M 2.778125,3.1749999 H 3.175 V 3.0427082 H 2.778125 Z M 3.175,3.0427082 H 3.4395833 V 2.9104166 H 3.175 Z M 3.4395833,2.9104166 H 3.571875 V 2.7781249 H 3.4395833 Z M 3.571875,2.7781249 H 3.7041667 V 2.6458332 H 3.571875 Z M 3.7041667,2.6458332 H 3.8364583 V 2.5135416 H 3.7041667 Z M 3.8364583,2.5135416 H 3.96875 V 2.3812499 H 3.8364583 Z M 0.66145825,3.1749999 V 3.3072916 H 0.79374995 V 3.1749999 Z M 3.4395833,3.3072916 H 3.571875 V 3.1749999 H 3.4395833 Z"
       style="fill:#6c5d53;fill-opacity:1;stroke:none;stroke-width:0.39528453;stroke-linecap:round;stroke-linejoin:round;stroke-miterlimit:4;stroke-dasharray:none;stroke-opacity:1" />
    <path
       id="rect4602"
       d="M 2.38125,0.13229161 V 0.26458327 H 2.778125 V 0.13229161 Z M 1.4552083,0.39687494 V 0.52916661 H 2.778125 V 0.39687494 Z M 2.778125,0.52916661 V 0.66145825 H 3.0427083 V 0.52916661 Z M 3.0427083,0.66145825 V 0.92604165 H 3.3072917 V 0.66145825 Z M 3.3072917,0.92604165 V 1.0583332 H 3.571875 V 0.92604165 Z M 3.571875,1.0583332 V 1.4552082 H 3.7041667 V 1.0583332 Z M 3.7041667,1.4552082 V 1.7197916 H 3.8364583 V 1.4552082 Z M 3.8364583,1.7197916 V 1.9843749 H 3.96875 V 1.7197916 Z M 3.96875,1.7197916 H 4.1010417 V 1.4552082 H 3.96875 Z M 3.8364583,1.9843749 H 3.7041667 V 2.2489582 H 3.8364583 Z M 3.7041667,2.2489582 H 3.571875 V 2.3812499 H 3.7041667 Z M 3.571875,2.3812499 H 3.4395833 V 2.5135416 H 3.571875 Z M 3.4395833,2.5135416 H 3.3072917 V 2.7781249 H 3.4395833 Z M 3.3072917,2.7781249 H 2.778125 V 2.9104166 H 3.3072917 Z M 2.778125,2.9104166 H 1.4552083 V 3.0427082 H 2.778125 Z M 1.4552083,2.9104166 V 2.7781249 H 1.0583333 V 2.9104166 Z M 3.7041667,1.7197916 H 3.571875 V 1.8520832 H 3.7041667 Z M 3.571875,1.8520832 H 3.4395833 V 1.9843749 H 3.571875 Z M 3.4395833,1.9843749 H 3.175 V 2.1166666 H 3.4395833 Z M 3.175,2.1166666 H 3.0427083 V 2.3812499 H 3.175 Z M 3.0427083,2.3812499 H 2.6458333 V 2.5135416 H 3.0427083 Z M 2.6458333,2.5135416 H 1.7197917 V 2.3812499 H 0.92604155 V 2.6458332 H 1.7197917 V 2.7781249 H 2.6458333 Z M 0.92604155,2.3812499 V 2.2489582 H 0.79374995 V 2.3812499 Z M 0.79374995,2.2489582 V 2.1166666 H 0.66145825 V 2.2489582 Z M 0.66145825,2.1166666 V 1.8520832 H 0.52916655 V 2.1166666 Z M 0.52916655,1.8520832 V 1.4552082 H 0.39687495 V 1.8520832 Z M 0.52916655,1.4552082 H 0.66145825 V 1.0583332 H 0.52916655 Z M 0.66145825,1.0583332 H 0.79374995 V 0.92604165 H 0.66145825 Z M 0.79374995,0.92604165 H 0.92604155 V 0.79374995 H 1.4552083 V 0.52916661 H 0.92604155 V 0.66145825 H 0.79374995 Z M 3.0427083,2.1166666 V 1.9843749 H 2.9104167 V 2.1166666 Z M 2.9104167,2.1166666 H 1.7197917 V 2.2489582 H 2.9104167 Z M 1.7197917,2.1166666 V 1.9843749 H 1.190625 V 2.1166666 Z M 1.190625,1.9843749 V 1.8520832 H 1.0583333 V 1.9843749 Z M 1.0583333,1.8520832 V 1.7197916 H 0.92604155 V 1.8520832 Z M 0.92604155,1.7197916 V 1.1906249 H 0.79374995 V 1.7197916 Z M 0.92604155,1.1906249 H 1.0583333 V 1.0583332 H 0.92604155 Z M 1.0583333,1.0583332 H 1.7197917 V 0.92604165 H 2.5135417 V 0.79374995 H 1.5875 V 0.92604165 H 1.0583333 Z M 2.5135417,0.92604165 V 1.0583332 H 3.0427083 V 0.92604165 Z M 3.0427083,1.0583332 V 1.1906249 H 3.175 V 1.0583332 Z M 3.175,1.1906249 V 1.3229166 H 3.3072917 V 1.1906249 Z M 3.3072917,1.3229166 V 1.5874999 H 3.4395833 V 1.3229166 Z M 3.3072917,1.5874999 H 3.175 V 1.4552082 H 3.0427083 V 1.7197916 H 3.175 V 1.8520832 H 3.3072917 Z M 3.175,1.8520832 H 3.0427083 V 1.9843749 H 3.175 Z M 3.0427083,1.8520832 V 1.7197916 H 2.9104167 V 1.8520832 Z M 2.9104167,1.8520832 H 1.984375 V 1.9843749 H 2.9104167 Z M 1.984375,1.8520832 V 1.7197916 H 1.4552083 V 1.8520832 Z M 1.4552083,1.7197916 V 1.5874999 H 1.3229167 V 1.7197916 Z M 1.3229167,1.5874999 V 1.4552082 H 1.190625 V 1.5874999 Z M 1.190625,1.4552082 V 1.3229166 H 1.0583333 V 1.4552082 Z M 1.190625,1.3229166 H 1.984375 V 1.1906249 H 1.190625 Z M 1.984375,1.1906249 H 2.5135417 V 1.0583332 H 1.984375 Z M 2.5135417,1.1906249 V 1.3229166 H 2.9104167 V 1.1906249 Z M 2.9104167,1.3229166 V 1.4552082 H 3.0427083 V 1.3229166 Z M 3.571875,0.66145825 V 0.79374995 H 3.7041667 V 0.66145825 Z M 3.8364583,0.92604165 V 1.0583332 H 3.96875 V 0.92604165 Z M 0.13229157,1.1906249 V 1.7197916 H 0.26458325 V 1.1906249 Z M 1.7197917,1.4552082 V 1.5874999 H 2.6458333 V 1.4552082 Z M 0.26458325,2.2489582 V 2.3812499 H 0.39687495 V 2.2489582 Z"
       style="fill:#ae882f;fill-opacity:1;stroke:none;stroke-width:2;stroke-linecap:round;stroke-linejoin:round;stroke-miterlimit:4;stroke-dasharray:none;stroke-opacity:1" />
  </g>
</svg>
